<?xml version="1.0" encoding="utf-8"?>
<!-- Generator: Adobe Illustrator 20.1.0, SVG Export Plug-In . SVG Version: 6.00 Build 0)  -->
<svg height="25px" width="25px" version="1.1" id="Layer_1" xmlns="http://www.w3.org/2000/svg" xmlns:xlink="http://www.w3.org/1999/xlink" x="0px" y="0px"
	 viewBox="0 0 53.8 51.2" style="enable-background:new 0 0 53.8 51.2;" xml:space="preserve">
<style type="text/css">
	.st0{fill:#FFFFFF;}
</style>
<title>Artboard 1</title>
<g>
	<path class="st0" d="M11.8,32.1c-2.6,0.9-5.2,2.2-7.5,3.7l4.9,8.5c0,0,4.5-3.3,13.9-4.8C18.5,38.4,14.5,35.8,11.8,32.1z"/>
	<path class="st0" d="M41.8,31.6L41.8,31.6c-3.3-1-6.8-1.5-10.2-1.5c-12.1,0-12.1-10.5-12.1-10.6c0-4.4,3.6-8,8-8s8,3.6,8,8
		s-3.6,8-8,8H27c1.6,0.9,3.4,1.2,5.3,1c3.6-0.2,7.2,0.4,10.5,1.7c5.4-8.5,2.9-19.8-5.6-25.2S17.4,2.1,12,10.6
		c-3.7,5.7-3.8,13-0.4,18.9c0.1,0.2,0.3,0.6,0.6,1l0.1,0.2l0.3,0.5l0,0c1.9,2.5,6.2,6.9,14.7,7.7l1.3,0.2c11.5,1.2,17,5.3,17,5.3
		l4.9-8.5C47.8,34,44.9,32.6,41.8,31.6z"/>
</g>
</svg>
